{
    "asset" : {
        "generator" : "Khronos glTF Blender I/O v1.3.48",
        "version" : "2.0"
    },
    "scene" : 0,
    "scenes" : [
        {
            "name" : "Scene",
            "nodes" : [
                0
            ]
        }
    ],
    "nodes" : [
        {
            "mesh" : 0,
            "name" : "meloch_2_1st.001",
            "scale" : [
                0.009999999776482582,
                0.009999999776482582,
                0.009999999776482582
            ],
            "translation" : [
                -0.0046819113194942474,
                0.022132670506834984,
                0
            ]
        }
    ],
    "materials" : [
        {
            "doubleSided" : true,
            "emissiveFactor" : [
                0,
                0,
                0
            ],
            "name" : "after",
            "normalTexture" : {
                "index" : 0,
                "scale" : 3,
                "texCoord" : 0
            },
            "pbrMetallicRoughness" : {
                "baseColorTexture" : {
                    "index" : 1,
                    "texCoord" : 0
                },
                "metallicRoughnessTexture" : {
                    "index" : 2,
                    "texCoord" : 0
                }
            }
        }
    ],
    "meshes" : [
        {
            "name" : "meloch_2_1st.001",
            "primitives" : [
                {
                    "attributes" : {
                        "POSITION" : 0,
                        "NORMAL" : 1,
                        "TEXCOORD_0" : 2
                    },
                    "indices" : 3,
                    "material" : 0
                }
            ]
        }
    ],
    "textures" : [
        {
            "source" : 0
        },
        {
            "source" : 1
        },
        {
            "source" : 2
        }
    ],
    "images" : [
        {
            "mimeType" : "image/png",
            "name" : "NormalMap",
            "uri" : "texture/NormalMap.png"
        },
        {
            "mimeType" : "image/png",
            "name" : "meloch2_dif2_auto_x2_colored_toned",
            "uri" : "texture/meloch2_dif2_auto_x2_colored_toned.png"
        },
        {
            "mimeType" : "image/png",
            "name" : "meloch2_dif2",
            "uri" : "texture/meloch2_dif2.png"
        }
    ],
    "accessors" : [
        {
            "bufferView" : 0,
            "componentType" : 5126,
            "count" : 19226,
            "max" : [
                9.186263084411621,
                5.490292549133301,
                7.616400241851807
            ],
            "min" : [
                -6.144016265869141,
                -9.334354400634766,
                -13.08135986328125
            ],
            "type" : "VEC3"
        },
        {
            "bufferView" : 1,
            "componentType" : 5126,
            "count" : 19226,
            "type" : "VEC3"
        },
        {
            "bufferView" : 2,
            "componentType" : 5126,
            "count" : 19226,
            "type" : "VEC2"
        },
        {
            "bufferView" : 3,
            "componentType" : 5123,
            "count" : 71520,
            "type" : "SCALAR"
        }
    ],
    "bufferViews" : [
        {
            "buffer" : 0,
            "byteLength" : 230712,
            "byteOffset" : 0
        },
        {
            "buffer" : 0,
            "byteLength" : 230712,
            "byteOffset" : 230712
        },
        {
            "buffer" : 0,
            "byteLength" : 153808,
            "byteOffset" : 461424
        },
        {
            "buffer" : 0,
            "byteLength" : 143040,
            "byteOffset" : 615232
        }
    ],
    "buffers" : [
        {
            "byteLength" : 758272,
            "uri" : "scene.bin"
        }
    ]
}
