{
    "asset" : {
        "generator" : "Khronos glTF Blender I/O v1.3.48",
        "version" : "2.0"
    },
    "scene" : 0,
    "scenes" : [
        {
            "name" : "Scene",
            "nodes" : [
                0
            ]
        }
    ],
    "nodes" : [
        {
            "mesh" : 0,
            "name" : "meloch_1_2storona.002"
        }
    ],
    "materials" : [
        {
            "doubleSided" : true,
            "emissiveFactor" : [
                0,
                0,
                0
            ],
            "name" : "after",
            "normalTexture" : {
                "index" : 0,
                "scale" : 3,
                "texCoord" : 0
            },
            "pbrMetallicRoughness" : {
                "baseColorTexture" : {
                    "index" : 1,
                    "texCoord" : 0
                },
                "metallicRoughnessTexture" : {
                    "index" : 2,
                    "texCoord" : 0
                }
            }
        }
    ],
    "meshes" : [
        {
            "name" : "meloch_1_2storona.002",
            "primitives" : [
                {
                    "attributes" : {
                        "POSITION" : 0,
                        "NORMAL" : 1,
                        "TEXCOORD_0" : 2
                    },
                    "indices" : 3,
                    "material" : 0
                }
            ]
        }
    ],
    "textures" : [
        {
            "source" : 0
        },
        {
            "source" : 1
        },
        {
            "source" : 2
        }
    ],
    "images" : [
        {
            "mimeType" : "image/png",
            "name" : "NormalMap",
            "uri" : "textures/NormalMap.png"
        },
        {
            "mimeType" : "image/png",
            "name" : "meloscj_dif_auto_x2_colored_toned",
            "uri" : "textures/meloscj_dif_auto_x2_colored_toned.png"
        },
        {
            "mimeType" : "image/png",
            "name" : "meloscj_dif",
            "uri" : "textures/meloscj_dif.png"
        }
    ],
    "accessors" : [
        {
            "bufferView" : 0,
            "componentType" : 5126,
            "count" : 38306,
            "max" : [
                0.2131447196006775,
                0.2108745127916336,
                0.07331881672143936
            ],
            "min" : [
                -0.19636355340480804,
                -0.20755811035633087,
                -0.024983858689665794
            ],
            "type" : "VEC3"
        },
        {
            "bufferView" : 1,
            "componentType" : 5126,
            "count" : 38306,
            "type" : "VEC3"
        },
        {
            "bufferView" : 2,
            "componentType" : 5126,
            "count" : 38306,
            "type" : "VEC2"
        },
        {
            "bufferView" : 3,
            "componentType" : 5123,
            "count" : 116208,
            "type" : "SCALAR"
        }
    ],
    "bufferViews" : [
        {
            "buffer" : 0,
            "byteLength" : 459672,
            "byteOffset" : 0
        },
        {
            "buffer" : 0,
            "byteLength" : 459672,
            "byteOffset" : 459672
        },
        {
            "buffer" : 0,
            "byteLength" : 306448,
            "byteOffset" : 919344
        },
        {
            "buffer" : 0,
            "byteLength" : 232416,
            "byteOffset" : 1225792
        }
    ],
    "buffers" : [
        {
            "byteLength" : 1458208,
            "uri" : "scene.bin"
        }
    ]
}
