{
    "asset" : {
        "generator" : "Khronos glTF Blender I/O v1.3.48",
        "version" : "2.0"
    },
    "scene" : 0,
    "scenes" : [
        {
            "name" : "Scene",
            "nodes" : [
                0
            ]
        }
    ],
    "nodes" : [
        {
            "mesh" : 0,
            "name" : "high",
            "rotation" : [
                0,
                -0.988144040107727,
                0,
                0.15352971851825714
            ],
            "translation" : [
                -0.030288564041256905,
                0.030288567766547203,
                -0.08076950162649155
            ]
        }
    ],
    "materials" : [
        {
            "emissiveFactor" : [
                0,
                0,
                0
            ],
            "name" : "Material_MR",
            "normalTexture" : {
                "index" : 0,
                "texCoord" : 0
            },
            "pbrMetallicRoughness" : {
                "baseColorTexture" : {
                    "index" : 1,
                    "texCoord" : 0
                },
                "metallicRoughnessTexture" : {
                    "index" : 2,
                    "texCoord" : 0
                }
            }
        }
    ],
    "meshes" : [
        {
            "name" : "zoloto_temnaya_last2.002",
            "primitives" : [
                {
                    "attributes" : {
                        "POSITION" : 0,
                        "NORMAL" : 1,
                        "TEXCOORD_0" : 2
                    },
                    "indices" : 3,
                    "material" : 0
                }
            ]
        }
    ],
    "textures" : [
        {
            "source" : 0
        },
        {
            "source" : 1
        },
        {
            "source" : 2
        }
    ],
    "images" : [
        {
            "mimeType" : "image/jpeg",
            "name" : "lara_normal_2X",
            "uri" : "lara_normal_2X.jpg"
        },
        {
            "mimeType" : "image/png",
            "name" : "zoloto_dif_auto_x2_colored_toned",
            "uri" : "zoloto_dif_auto_x2_colored_toned.png"
        },
        {
            "mimeType" : "image/jpeg",
            "name" : "zoloto_MET_RO_last",
            "uri" : "zoloto_MET_RO_last.jpg"
        }
    ],
    "accessors" : [
        {
            "bufferView" : 0,
            "componentType" : 5126,
            "count" : 12105,
            "max" : [
                0.3623415529727936,
                0.06452374905347824,
                0.30619803071022034
            ],
            "min" : [
                -0.3919179439544678,
                -0.04399745538830757,
                -0.41708067059516907
            ],
            "type" : "VEC3"
        },
        {
            "bufferView" : 1,
            "componentType" : 5126,
            "count" : 12105,
            "type" : "VEC3"
        },
        {
            "bufferView" : 2,
            "componentType" : 5126,
            "count" : 12105,
            "type" : "VEC2"
        },
        {
            "bufferView" : 3,
            "componentType" : 5123,
            "count" : 44640,
            "type" : "SCALAR"
        }
    ],
    "bufferViews" : [
        {
            "buffer" : 0,
            "byteLength" : 145260,
            "byteOffset" : 0
        },
        {
            "buffer" : 0,
            "byteLength" : 145260,
            "byteOffset" : 145260
        },
        {
            "buffer" : 0,
            "byteLength" : 96840,
            "byteOffset" : 290520
        },
        {
            "buffer" : 0,
            "byteLength" : 89280,
            "byteOffset" : 387360
        }
    ],
    "buffers" : [
        {
            "byteLength" : 476640,
            "uri" : "scene.bin"
        }
    ]
}
