{
  "accessors": [
    {
      "bufferView": 2,
      "componentType": 5126,
      "count": 64547,
      "max": [
        3.0352768898010254,
        1.4022409915924072,
        4.4747238159179688
      ],
      "min": [
        -3.1310949325561523,
        -1.5746380090713501,
        -5.1772541999816895
      ],
      "type": "VEC3"
    },
    {
      "bufferView": 2,
      "byteOffset": 774564,
      "componentType": 5126,
      "count": 64547,
      "max": [
        0.99997836351394653,
        0.99987351894378662,
        0.99998444318771362
      ],
      "min": [
        -0.99999994039535522,
        -0.99999761581420898,
        -0.99982446432113647
      ],
      "type": "VEC3"
    },
    {
      "bufferView": 3,
      "componentType": 5126,
      "count": 64547,
      "max": [
        0.99999016523361206,
        0.99999088048934937,
        0.99999940395355225,
        1
      ],
      "min": [
        -0.99995917081832886,
        -0.99996471405029297,
        -0.99999731779098511,
        -1
      ],
      "type": "VEC4"
    },
    {
      "bufferView": 1,
      "componentType": 5126,
      "count": 64547,
      "max": [
        0.9928169846534729,
        0.99965298175811768
      ],
      "min": [
        0.0051890001632273197,
        0.0039539998397231102
      ],
      "type": "VEC2"
    },
    {
      "bufferView": 0,
      "componentType": 5125,
      "count": 347616,
      "max": [
        64546
      ],
      "min": [
        0
      ],
      "type": "SCALAR"
    },
    {
      "bufferView": 2,
      "byteOffset": 1549128,
      "componentType": 5126,
      "count": 395,
      "max": [
        3.0352768898010254,
        1.4022409915924072,
        4.4747238159179688
      ],
      "min": [
        -3.1310949325561523,
        -0.38176500797271729,
        -5.1772541999816895
      ],
      "type": "VEC3"
    },
    {
      "bufferView": 2,
      "byteOffset": 1553868,
      "componentType": 5126,
      "count": 395,
      "max": [
        0.95966476202011108,
        1,
        3.5436517009657109e-06
      ],
      "min": [
        -0.95966434478759766,
        0.28114703297615051,
        -0.59812098741531372
      ],
      "type": "VEC3"
    },
    {
      "bufferView": 3,
      "byteOffset": 1032752,
      "componentType": 5126,
      "count": 395,
      "max": [
        0,
        0,
        0,
        1
      ],
      "min": [
        0,
        0,
        0,
        1
      ],
      "type": "VEC4"
    },
    {
      "bufferView": 1,
      "byteOffset": 516376,
      "componentType": 5126,
      "count": 395,
      "max": [
        0,
        0
      ],
      "min": [
        0,
        0
      ],
      "type": "VEC2"
    },
    {
      "bufferView": 0,
      "byteOffset": 1390464,
      "componentType": 5125,
      "count": 1167,
      "max": [
        394
      ],
      "min": [
        0
      ],
      "type": "SCALAR"
    },
    {
      "bufferView": 2,
      "byteOffset": 1558608,
      "componentType": 5126,
      "count": 1045,
      "max": [
        2.9311308860778809,
        1.4022389650344849,
        4.4747238159179688
      ],
      "min": [
        -3.0554399490356445,
        -1.2252629995346069,
        -5.1772541999816895
      ],
      "type": "VEC3"
    },
    {
      "bufferView": 2,
      "byteOffset": 1571148,
      "componentType": 5126,
      "count": 1045,
      "max": [
        0,
        0,
        1
      ],
      "min": [
        0,
        0,
        -1
      ],
      "type": "VEC3"
    },
    {
      "bufferView": 3,
      "byteOffset": 1039072,
      "componentType": 5126,
      "count": 1045,
      "max": [
        0,
        0,
        0,
        1
      ],
      "min": [
        0,
        0,
        0,
        1
      ],
      "type": "VEC4"
    },
    {
      "bufferView": 1,
      "byteOffset": 519536,
      "componentType": 5126,
      "count": 1045,
      "max": [
        0,
        0
      ],
      "min": [
        0,
        0
      ],
      "type": "VEC2"
    },
    {
      "bufferView": 0,
      "byteOffset": 1395132,
      "componentType": 5125,
      "count": 3123,
      "max": [
        1044
      ],
      "min": [
        0
      ],
      "type": "SCALAR"
    }
  ],
  "asset": {
    "extras": {
      "author": "Thomas Flynn (https://sketchfab.com/nebulousflynn)",
      "license": "CC-BY-4.0 (http://creativecommons.org/licenses/by/4.0/)",
      "source": "https://sketchfab.com/models/66217f6571b448159dedb790bf5c42c1",
      "title": "Haida Totem Pole, circa1860-70 [section]"
    },
    "generator": "Sketchfab-3.19.6",
    "version": "2.0"
  },
  "bufferViews": [
    {
      "buffer": 0,
      "byteLength": 1407624,
      "byteOffset": 0,
      "name": "floatBufferViews",
      "target": 34963
    },
    {
      "buffer": 0,
      "byteLength": 527896,
      "byteOffset": 1407624,
      "byteStride": 8,
      "name": "floatBufferViews",
      "target": 34962
    },
    {
      "buffer": 0,
      "byteLength": 1583688,
      "byteOffset": 1935520,
      "byteStride": 12,
      "name": "floatBufferViews",
      "target": 34962
    },
    {
      "buffer": 0,
      "byteLength": 1055792,
      "byteOffset": 3519208,
      "byteStride": 16,
      "name": "floatBufferViews",
      "target": 34962
    }
  ],
  "buffers": [
    {
      "byteLength": 4575000,
      "uri": "scene.bin"
    }
  ],
  "images": [
    {
      "uri": "textures/totem-beaver_metallicRoughness.png"
    },
    {
      "uri": "textures/totem-beaver_baseColor.jpeg"
    },
    {
      "uri": "textures/totem-beaver_NONE_NONE_baseColor.jpeg"
    },
    {
      "uri": "textures/totem-beaver_NONE_baseColor.jpeg"
    }
  ],
  "materials": [
    {
      "doubleSided": true,
      "emissiveFactor": [
        0,
        0,
        0
      ],
      "name": "totem-beaver",
      "occlusionTexture": {
        "index": 0,
        "strength": 0.55000000000000004,
        "texCoord": 0
      },
      "pbrMetallicRoughness": {
        "baseColorFactor": [
          0.45000000000000001,
          0.45000000000000001,
          0.45000000000000001,
          1
        ],
        "baseColorTexture": {
          "index": 1,
          "texCoord": 0
        },
        "metallicFactor": 0.57999999999999996,
        "metallicRoughnessTexture": {
          "index": 0,
          "texCoord": 0
        },
        "roughnessFactor": 1
      }
    },
    {
      "doubleSided": true,
      "emissiveFactor": [
        0,
        0,
        0
      ],
      "name": "totem-beaver_NONE",
      "pbrMetallicRoughness": {
        "baseColorFactor": [
          0,
          0,
          0,
          1
        ],
        "baseColorTexture": {
          "index": 3,
          "texCoord": 0
        },
        "metallicFactor": 0,
        "roughnessFactor": 1
      }
    },
    {
      "doubleSided": true,
      "emissiveFactor": [
        0,
        0,
        0
      ],
      "name": "totem-beaver_NONE_NONE",
      "pbrMetallicRoughness": {
        "baseColorFactor": [
          0,
          0,
          0,
          1
        ],
        "baseColorTexture": {
          "index": 2,
          "texCoord": 0
        },
        "metallicFactor": 0,
        "roughnessFactor": 1
      }
    }
  ],
  "meshes": [
    {
      "primitives": [
        {
          "attributes": {
            "NORMAL": 1,
            "POSITION": 0,
            "TANGENT": 2,
            "TEXCOORD_0": 3
          },
          "indices": 4,
          "material": 0,
          "mode": 4
        }
      ]
    },
    {
      "primitives": [
        {
          "attributes": {
            "NORMAL": 6,
            "POSITION": 5,
            "TANGENT": 7,
            "TEXCOORD_0": 8
          },
          "indices": 9,
          "material": 1,
          "mode": 4
        }
      ]
    },
    {
      "primitives": [
        {
          "attributes": {
            "NORMAL": 11,
            "POSITION": 10,
            "TANGENT": 12,
            "TEXCOORD_0": 13
          },
          "indices": 14,
          "material": 2,
          "mode": 4
        }
      ]
    }
  ],
  "nodes": [
    {
      "children": [
        1
      ],
      "name": "RootNode (gltf orientation matrix)",
      "rotation": [
        -0.70710678118654746,
        -0,
        -0,
        0.70710678118654757
      ]
    },
    {
      "children": [
        2
      ],
      "name": "RootNode (model correction matrix)"
    },
    {
      "children": [
        3,
        4,
        5
      ],
      "name": "totem-beaver.obj.cleaner.gles"
    },
    {
      "mesh": 0,
      "name": ""
    },
    {
      "mesh": 1,
      "name": ""
    },
    {
      "mesh": 2,
      "name": ""
    }
  ],
  "samplers": [
    {
      "magFilter": 9729,
      "minFilter": 9987,
      "wrapS": 10497,
      "wrapT": 10497
    }
  ],
  "scene": 0,
  "scenes": [
    {
      "name": "OSG_Scene",
      "nodes": [
        0
      ]
    }
  ],
  "textures": [
    {
      "sampler": 0,
      "source": 0
    },
    {
      "sampler": 0,
      "source": 1
    },
    {
      "sampler": 0,
      "source": 2
    },
    {
      "sampler": 0,
      "source": 3
    }
  ]
}

