{
    "asset" : {
        "generator" : "Khronos glTF Blender I/O v1.3.48",
        "version" : "2.0"
    },
    "scene" : 0,
    "scenes" : [
        {
            "name" : "Scene",
            "nodes" : [
                0
            ]
        }
    ],
    "nodes" : [
        {
            "mesh" : 0,
            "name" : "meloch_1_2storona.002"
        }
    ],
    "materials" : [
        {
            "doubleSided" : true,
            "emissiveFactor" : [
                0,
                0,
                0
            ],
            "name" : "Material.003",
            "normalTexture" : {
                "index" : 0,
                "scale" : 1.1920928955078125e-07,
                "texCoord" : 0
            },
            "pbrMetallicRoughness" : {
                "baseColorTexture" : {
                    "index" : 1,
                    "texCoord" : 0
                },
                "metallicFactor" : 0,
                "roughnessFactor" : 0.8222899436950684
            }
        }
    ],
    "meshes" : [
        {
            "name" : "meloch_1_2storona.002",
            "primitives" : [
                {
                    "attributes" : {
                        "POSITION" : 0,
                        "NORMAL" : 1,
                        "TEXCOORD_0" : 2
                    },
                    "indices" : 3,
                    "material" : 0
                }
            ]
        }
    ],
    "textures" : [
        {
            "source" : 0
        },
        {
            "source" : 1
        }
    ],
    "images" : [
        {
            "mimeType" : "image/png",
            "name" : "meloscj_NORM",
            "uri" : "textures/meloscj_NORM.png"
        },
        {
            "mimeType" : "image/png",
            "name" : "meloscj_dif_auto_x2_colored_toned",
            "uri" : "textures/meloscj_dif_auto_x2_colored_toned.png"
        }
    ],
    "accessors" : [
        {
            "bufferView" : 0,
            "componentType" : 5126,
            "count" : 31440,
            "max" : [
                0.19556547701358795,
                0.2176211029291153,
                0.12321140617132187
            ],
            "min" : [
                -0.16339844465255737,
                -0.18091240525245667,
                -0.13527964055538177
            ],
            "type" : "VEC3"
        },
        {
            "bufferView" : 1,
            "componentType" : 5126,
            "count" : 31440,
            "type" : "VEC3"
        },
        {
            "bufferView" : 2,
            "componentType" : 5126,
            "count" : 31440,
            "type" : "VEC2"
        },
        {
            "bufferView" : 3,
            "componentType" : 5123,
            "count" : 116208,
            "type" : "SCALAR"
        }
    ],
    "bufferViews" : [
        {
            "buffer" : 0,
            "byteLength" : 377280,
            "byteOffset" : 0
        },
        {
            "buffer" : 0,
            "byteLength" : 377280,
            "byteOffset" : 377280
        },
        {
            "buffer" : 0,
            "byteLength" : 251520,
            "byteOffset" : 754560
        },
        {
            "buffer" : 0,
            "byteLength" : 232416,
            "byteOffset" : 1006080
        }
    ],
    "buffers" : [
        {
            "byteLength" : 1238496,
            "uri" : "scene.bin"
        }
    ]
}
